<?xml version="1.0" encoding="UTF-8" standalone="no"?>
<!DOCTYPE svg PUBLIC "-//W3C//DTD SVG 1.1//EN" "http://www.w3.org/Graphics/SVG/1.1/DTD/svg11.dtd">
<svg xmlns="http://www.w3.org/2000/svg" xmlns:dc="http://purl.org/dc/elements/1.1/" xmlns:xl="http://www.w3.org/1999/xlink" version="1.1" viewBox="0 4 418 276" width="418" height="276">
  <defs/>
  <g id="Canvas_1" stroke-opacity="1" fill-opacity="1" fill="none" stroke-dasharray="none" stroke="none">
    <title>Canvas 1</title>
    <rect fill="white" x="0" y="4" width="418" height="276"/>
    <g id="Canvas_1_Layer_1">
      <title>Layer 1</title>
      <g id="Line_2">
        <path d="M 52.22 242.91 L 57.78 67.73 L 63.34 27.66 L 68.91 20.2 L 74.47 17.44 L 80.04 16.79 L 85.6 19.65 L 91.16 20.48 L 96.73 20.96 L 102.29 23.08 L 107.86 25.2 L 113.42 26.12 L 118.98 27.41 L 124.55 28.33 L 130.11 30.31 L 135.68 30.64 L 141.24 31.51 L 146.8 30.38 L 152.37 32.6 L 157.93 34.87 L 163.5 35.8 L 169.06 36.4 L 174.62 35.32 L 180.19 35.15 L 185.75 36.01 L 191.31 37.98 L 196.88 37.89 L 202.44 36.86 L 208.01 36.51 L 213.57 37.45 L 219.13 39.54 L 224.7 40.62 L 230.26 38.03 L 235.83 39.21 L 241.39 40.21 L 246.95 38.81 L 252.52 38.24 L 258.08 37.66 L 263.65 36.42 L 269.21 37.39 L 274.77 38.63 L 280.34 39.11 L 285.9 38.61 L 291.47 40.26 L 297.03 39.38 L 302.59 39.74 L 308.16 40.7 L 313.72 39.38 L 319.29 39.85 L 324.85 39.19 L 330.41 39.52" stroke="#5b86be" stroke-linecap="butt" stroke-linejoin="round" stroke-width="1"/>
      </g>
      <g id="Line_3">
        <path d="M 52.22 242.91 L 57.78 164.44 L 63.34 136.73 L 68.91 128.07 L 74.47 124.22 L 80.04 122.82 L 85.6 123.73 L 91.16 125.08 L 96.73 127.7 L 102.29 128.94 L 107.86 128.9 L 113.42 129.34 L 118.98 130.39 L 124.55 132.38 L 130.11 131.26 L 135.68 131.59 L 141.24 132.14 L 146.8 133.1 L 152.37 134.17 L 157.93 133.83 L 163.5 134.37 L 169.06 133.43 L 174.62 133.99 L 180.19 134.02 L 185.75 133.57 L 191.31 134.06 L 196.88 133.95 L 202.44 134.96 L 208.01 135.51 L 213.57 134.92 L 219.13 137.39 L 224.7 136.84 L 230.26 135.32 L 235.83 136.48 L 241.39 136.46 L 246.95 135.8 L 252.52 136.66 L 258.08 135.98 L 263.65 137.41 L 269.21 137.03 L 274.77 136.63 L 280.34 136.28 L 285.9 136.74 L 291.47 136.29 L 297.03 135.99 L 302.59 136.25 L 308.16 137.29 L 313.72 136.15 L 319.29 136.37 L 324.85 135.56 L 330.41 135.54" stroke="#75b65a" stroke-linecap="butt" stroke-linejoin="round" stroke-width="1"/>
      </g>
      <g id="Line_4">
        <path d="M 52.22 242.91 L 57.78 181.61 L 63.34 168.35 L 68.91 165.92 L 74.47 165.92 L 80.04 167.32 L 85.6 166.74 L 91.16 166.12 L 96.73 164.66 L 102.29 164.65 L 107.86 163.21 L 113.42 163.47 L 118.98 163.71 L 124.55 163.73 L 130.11 163.1 L 135.68 163.6 L 141.24 162.17 L 146.8 161.75 L 152.37 159.48 L 157.93 160.28 L 163.5 160.34 L 169.06 160.82 L 174.62 160.3 L 180.19 160.09 L 185.75 160.34 L 191.31 159.76 L 196.88 160.77 L 202.44 159.21 L 208.01 158.63 L 213.57 158.61 L 219.13 158.09 L 224.7 158.92 L 230.26 160.21 L 235.83 158.52 L 241.39 158.78 L 246.95 158.41 L 252.52 160.34 L 258.08 159.97 L 263.65 159.05 L 269.21 159.2 L 274.77 159.18 L 280.34 159.59 L 285.9 159.3 L 291.47 159.36 L 297.03 158.65 L 302.59 158.78 L 308.16 159.1 L 313.72 158.95 L 319.29 159.05 L 324.85 159.41 L 330.41 158.43" stroke="#995ead" stroke-linecap="butt" stroke-linejoin="round" stroke-width="1"/>
      </g>
      <g id="Line_5">
        <path d="M 52.22 242.91 L 57.78 223.78 L 63.34 214.79 L 68.91 207.85 L 74.47 201.85 L 80.04 196.63 L 85.6 191.91 L 91.16 187.98 L 96.73 185.4 L 102.29 182.6 L 107.86 180.17 L 113.42 177.97 L 118.98 175.35 L 124.55 172.01 L 130.11 170.53 L 135.68 169.47 L 141.24 167.73 L 146.8 166.26 L 152.37 165.45 L 157.93 164.16 L 163.5 163.01 L 169.06 162.49 L 174.62 161.69 L 180.19 161.24 L 185.75 160.34 L 191.31 160.42 L 196.88 158.85 L 202.44 158.15 L 208.01 158.38 L 213.57 157.5 L 219.13 157.38 L 224.7 157.16 L 230.26 156.49 L 235.83 156.06 L 241.39 154.89 L 246.95 154.69 L 252.52 154.39 L 258.08 154.63 L 263.65 154.44 L 269.21 154.19 L 274.77 155.25 L 280.34 154.38 L 285.9 153.71 L 291.47 153.21 L 297.03 153.15 L 302.59 153.28 L 308.16 153.71 L 313.72 152.55 L 319.29 153.51 L 324.85 154.57 L 330.41 154.41" stroke="#d2412c" stroke-linecap="butt" stroke-linejoin="round" stroke-width="1"/>
      </g>
      <g id="Line_6">
        <line x1="38.31" y1="254.21" x2="38.31" y2="5.48" stroke="black" stroke-linecap="butt" stroke-linejoin="round" stroke-width="1"/>
      </g>
      <g id="Graphic_7">
        <text transform="translate(19.48 234.5)" fill="#4d4d4d">
          <tspan font-family="Helvetica" font-size="10" fill="#4d4d4d" x="0" y="10">0.0</tspan>
        </text>
      </g>
      <g id="Graphic_8">
        <text transform="translate(19.48 175.14)" fill="#4d4d4d">
          <tspan font-family="Helvetica" font-size="10" fill="#4d4d4d" x="0" y="10">0.5</tspan>
        </text>
      </g>
      <g id="Graphic_9">
        <text transform="translate(19.48 115.78)" fill="#4d4d4d">
          <tspan font-family="Helvetica" font-size="10" fill="#4d4d4d" x="0" y="10">1.0</tspan>
        </text>
      </g>
      <g id="Graphic_10">
        <text transform="translate(19.48 56.42)" fill="#4d4d4d">
          <tspan font-family="Helvetica" font-size="10" fill="#4d4d4d" x="0" y="10">1.5</tspan>
        </text>
      </g>
      <g id="Line_11">
        <line x1="38.31" y1="254.21" x2="344.32" y2="254.21" stroke="black" stroke-linecap="butt" stroke-linejoin="round" stroke-width="1"/>
      </g>
      <g id="Graphic_12">
        <text transform="translate(49.44 254.32)" fill="#4d4d4d">
          <tspan font-family="Helvetica" font-size="10" fill="#4d4d4d" x="0" y="10">0</tspan>
        </text>
      </g>
      <g id="Graphic_13">
        <text transform="translate(102.3 254.32)" fill="#4d4d4d">
          <tspan font-family="Helvetica" font-size="10" fill="#4d4d4d" x="0" y="10">10</tspan>
        </text>
      </g>
      <g id="Graphic_14">
        <text transform="translate(157.94 254.32)" fill="#4d4d4d">
          <tspan font-family="Helvetica" font-size="10" fill="#4d4d4d" x="0" y="10">20</tspan>
        </text>
      </g>
      <g id="Graphic_15">
        <text transform="translate(213.57 254.32)" fill="#4d4d4d">
          <tspan font-family="Helvetica" font-size="10" fill="#4d4d4d" x="0" y="10">30</tspan>
        </text>
      </g>
      <g id="Graphic_16">
        <text transform="translate(269.21 254.32)" fill="#4d4d4d">
          <tspan font-family="Helvetica" font-size="10" fill="#4d4d4d" x="0" y="10">40</tspan>
        </text>
      </g>
      <g id="Graphic_17">
        <text transform="translate(324.85 254.32)" fill="#4d4d4d">
          <tspan font-family="Helvetica" font-size="10" fill="#4d4d4d" x="0" y="10">50</tspan>
        </text>
      </g>
      <g id="Graphic_18">
        <text transform="translate(187.65 265.88)" fill="black">
          <tspan font-family="Helvetica" font-weight="bold" font-size="12" fill="black" x="0" y="11">T</tspan>
        </text>
      </g>
      <g id="Graphic_19">
        <text transform="translate(.5513672 168.7636) rotate(-90)" fill="black">
          <tspan font-family="Helvetica" font-weight="bold" font-size="12" fill="black" x="0" y="11">Mean Value</tspan>
        </text>
      </g>
      <g id="Line_20">
        <line x1="362.49" y1="103.93" x2="376.31" y2="103.93" stroke="#5b86be" stroke-linecap="butt" stroke-linejoin="round" stroke-width="1"/>
      </g>
      <g id="Line_21">
        <line x1="362.49" y1="121.21" x2="376.31" y2="121.21" stroke="#75b65a" stroke-linecap="butt" stroke-linejoin="round" stroke-width="1"/>
      </g>
      <g id="Line_22">
        <line x1="362.49" y1="138.49" x2="376.31" y2="138.49" stroke="#995ead" stroke-linecap="butt" stroke-linejoin="round" stroke-width="1"/>
      </g>
      <g id="Line_23">
        <line x1="362.49" y1="155.77" x2="376.31" y2="155.77" stroke="#d2412c" stroke-linecap="butt" stroke-linejoin="round" stroke-width="1"/>
      </g>
      <g id="Graphic_24">
        <text transform="translate(383.52 95.52)" fill="black">
          <tspan font-family="Helvetica" font-size="10" fill="black" x="0" y="10">FOXA2</tspan>
        </text>
      </g>
      <g id="Graphic_25">
        <text transform="translate(382.3613 112.8)" fill="black">
          <tspan font-family="Helvetica" font-size="10" fill="black" x="0" y="10">NKX2-1</tspan>
        </text>
      </g>
      <g id="Graphic_26">
        <text transform="translate(383.52 130.08)" fill="black">
          <tspan font-family="Helvetica" font-size="10" fill="black" x="0" y="10">p63</tspan>
        </text>
      </g>
      <g id="Graphic_27">
        <text transform="translate(383.52 147.36)" fill="black">
          <tspan font-family="Helvetica" font-size="10" fill="black" x="0" y="10">SOX2</tspan>
        </text>
      </g>
    </g>
  </g>
</svg>
