<?xml version="1.0" encoding="UTF-8" standalone="no"?>
<!DOCTYPE svg PUBLIC "-//W3C//DTD SVG 1.1//EN" "http://www.w3.org/Graphics/SVG/1.1/DTD/svg11.dtd">
<svg xmlns="http://www.w3.org/2000/svg" xmlns:dc="http://purl.org/dc/elements/1.1/" xmlns:xl="http://www.w3.org/1999/xlink" version="1.1" viewBox="0 1 419 279" width="419" height="279">
  <defs/>
  <g id="Canvas_1" stroke-opacity="1" fill-opacity="1" fill="none" stroke-dasharray="none" stroke="none">
    <title>Canvas 1</title>
    <rect fill="white" x="0" y="1" width="419" height="279"/>
    <g id="Canvas_1_Layer_1">
      <title>Layer 1</title>
      <g id="Line_2">
        <path d="M 44.26 242.91 L 49.97 138.19 L 55.69 120.39 L 61.4 120.88 L 67.12 123.83 L 72.83 128.41 L 78.55 131.84 L 84.26 134.1 L 89.98 139.11 L 95.7 142.7 L 101.41 145.09 L 107.13 149.25 L 112.84 151.89 L 118.56 152.97 L 124.27 153.95 L 129.99 157.06 L 135.7 159.63 L 141.42 161.05 L 147.14 162.74 L 152.85 163.11 L 158.57 164.83 L 164.28 166.18 L 170 166.96 L 175.71 168.81 L 181.43 170.52 L 187.14 170.39 L 192.86 171.07 L 198.58 172.19 L 204.29 172.69 L 210.01 172.67 L 215.72 173.36 L 221.44 173.29 L 227.15 174.17 L 232.87 174.57 L 238.59 175.39 L 244.3 175.6 L 250.02 175.33 L 255.73 175.58 L 261.45 175.61 L 267.16 176.84 L 272.88 177.28 L 278.59 176.82 L 284.31 177.24 L 290.03 176.69 L 295.74 177 L 301.46 176.56 L 307.17 177.36 L 312.89 177.95 L 318.6 176.92 L 324.32 177.29 L 330.03 177.73" stroke="#5b86be" stroke-linecap="butt" stroke-linejoin="round" stroke-width="1"/>
      </g>
      <g id="Line_3">
        <path d="M 44.26 242.91 L 49.97 196.64 L 55.69 182.32 L 61.4 179.81 L 67.12 180.81 L 72.83 182.84 L 78.55 184.77 L 84.26 187.58 L 89.98 189.53 L 95.7 191.81 L 101.41 193.54 L 107.13 195.28 L 112.84 195.79 L 118.56 197.79 L 124.27 197.78 L 129.99 199.15 L 135.7 201.07 L 141.42 200.83 L 147.14 201.81 L 152.85 202.71 L 158.57 202.87 L 164.28 203.15 L 170 204.39 L 175.71 205.37 L 181.43 206.16 L 187.14 206.48 L 192.86 206.65 L 198.58 206.77 L 204.29 207.45 L 210.01 207.91 L 215.72 207.99 L 221.44 207.63 L 227.15 208.04 L 232.87 208.07 L 238.59 208.52 L 244.3 209.15 L 250.02 209.71 L 255.73 209.4 L 261.45 209.58 L 267.16 209.91 L 272.88 209.97 L 278.59 209.79 L 284.31 210.03 L 290.03 209.61 L 295.74 209.63 L 301.46 209.85 L 307.17 210 L 312.89 210.47 L 318.6 210.9 L 324.32 210.55 L 330.03 209.92" stroke="#75b65a" stroke-linecap="butt" stroke-linejoin="round" stroke-width="1"/>
      </g>
      <g id="Line_4">
        <path d="M 44.26 242.91 L 49.97 200.67 L 55.69 189.31 L 61.4 186.93 L 67.12 184.43 L 72.83 181.54 L 78.55 180.8 L 84.26 179.7 L 89.98 178.49 L 95.7 177.64 L 101.41 175.36 L 107.13 175.52 L 112.84 174.54 L 118.56 173.75 L 124.27 172.73 L 129.99 172.55 L 135.7 171.73 L 141.42 170.91 L 147.14 170.99 L 152.85 169.63 L 158.57 170.23 L 164.28 169.67 L 170 169.11 L 175.71 167.71 L 181.43 167.89 L 192.86 168.05 L 198.58 167.21 L 210.01 167.65 L 215.72 167.08 L 221.44 166.44 L 227.15 165.96 L 232.87 165.93 L 238.59 165.86 L 244.3 166.5 L 250.02 165.63 L 255.73 166.05 L 261.45 165.87 L 267.16 165.64 L 272.88 165.25 L 278.59 164.93 L 284.31 165.99 L 290.03 165.57 L 295.74 165.78 L 301.46 165.14 L 307.17 165.83 L 312.89 165.72 L 318.6 165.05 L 324.32 164.68 L 330.03 164.72" stroke="#985cac" stroke-linecap="butt" stroke-linejoin="round" stroke-width="1"/>
      </g>
      <g id="Line_5">
        <path d="M 44.26 242.91 L 49.97 208.99 L 55.69 189.28 L 61.4 173.05 L 67.12 159.24 L 72.83 146.45 L 78.55 134.47 L 84.26 123.77 L 89.98 114.03 L 95.7 104.81 L 101.41 97.49 L 107.13 90.8 L 112.84 84.28 L 118.56 78.17 L 124.27 72.73 L 129.99 69.01 L 135.7 64.18 L 141.42 58.61 L 147.14 55.35 L 152.85 51.12 L 158.57 48.62 L 164.28 44.83 L 170 42.55 L 175.71 39.62 L 181.43 37.62 L 187.14 36.12 L 192.86 34.71 L 198.58 33.25 L 204.29 31.46 L 210.01 30.54 L 215.72 29.48 L 221.44 28.55 L 227.15 27.57 L 232.87 27.38 L 238.59 25.66 L 244.3 24.48 L 250.02 24.35 L 255.73 23.26 L 261.45 22.73 L 267.16 20.72 L 272.88 20.34 L 278.59 20.62 L 284.31 20.43 L 290.03 20.48 L 295.74 19.99 L 301.46 17.54 L 307.17 17.86 L 312.89 17.36 L 318.6 16.79 L 324.32 17.18 L 330.03 17.35" stroke="#d2412c" stroke-linecap="butt" stroke-linejoin="round" stroke-width="1"/>
      </g>
      <g id="Line_6">
        <line x1="29.97" y1="254.21" x2="29.97" y2="5.48" stroke="black" stroke-linecap="butt" stroke-linejoin="round" stroke-width="1"/>
      </g>
      <g id="Graphic_7">
        <text transform="translate(19.48 234.5)" fill="#4d4d4d">
          <tspan font-family="Helvetica" font-size="10" fill="#4d4d4d" x="0" y="10">0</tspan>
        </text>
      </g>
      <g id="Graphic_8">
        <text transform="translate(19.48 156.79)" fill="#4d4d4d">
          <tspan font-family="Helvetica" font-size="10" fill="#4d4d4d" x="0" y="10">1</tspan>
        </text>
      </g>
      <g id="Graphic_9">
        <text transform="translate(19.48 79.09)" fill="#4d4d4d">
          <tspan font-family="Helvetica" font-size="10" fill="#4d4d4d" x="0" y="10">2</tspan>
        </text>
      </g>
      <g id="Graphic_10">
        <text transform="translate(19.48 1.38)" fill="#4d4d4d">
          <tspan font-family="Helvetica" font-size="10" fill="#4d4d4d" x="0" y="10">3</tspan>
        </text>
      </g>
      <g id="Line_11">
        <line x1="29.97" y1="254.21" x2="344.32" y2="254.21" stroke="black" stroke-linecap="butt" stroke-linejoin="round" stroke-width="1"/>
      </g>
      <g id="Graphic_12">
        <text transform="translate(41.48 254.32)" fill="#4d4d4d">
          <tspan font-family="Helvetica" font-size="10" fill="#4d4d4d" x="0" y="10">0</tspan>
        </text>
      </g>
      <g id="Graphic_13">
        <text transform="translate(95.85 254.32)" fill="#4d4d4d">
          <tspan font-family="Helvetica" font-size="10" fill="#4d4d4d" x="0" y="10">10</tspan>
        </text>
      </g>
      <g id="Graphic_14">
        <text transform="translate(153.01 254.32)" fill="#4d4d4d">
          <tspan font-family="Helvetica" font-size="10" fill="#4d4d4d" x="0" y="10">20</tspan>
        </text>
      </g>
      <g id="Graphic_15">
        <text transform="translate(210.16 254.32)" fill="#4d4d4d">
          <tspan font-family="Helvetica" font-size="10" fill="#4d4d4d" x="0" y="10">30</tspan>
        </text>
      </g>
      <g id="Graphic_16">
        <text transform="translate(267.32 254.32)" fill="#4d4d4d">
          <tspan font-family="Helvetica" font-size="10" fill="#4d4d4d" x="0" y="10">40</tspan>
        </text>
      </g>
      <g id="Graphic_17">
        <text transform="translate(324.47 254.32)" fill="#4d4d4d">
          <tspan font-family="Helvetica" font-size="10" fill="#4d4d4d" x="0" y="10">50</tspan>
        </text>
      </g>
      <g id="Graphic_18">
        <text transform="translate(183.48 265.88)" fill="black">
          <tspan font-family="Helvetica" font-weight="bold" font-size="12" fill="black" x="0" y="11">T</tspan>
        </text>
      </g>
      <g id="Graphic_19">
        <text transform="translate(.55152344 162.5336) rotate(-90)" fill="black">
          <tspan font-family="Helvetica" font-weight="bold" font-size="12" fill="black" x="0" y="11">Mean Value</tspan>
        </text>
      </g>
      <g id="Line_20">
        <line x1="362.49" y1="103.93" x2="376.31" y2="103.93" stroke="#5b86be" stroke-linecap="butt" stroke-linejoin="round" stroke-width="1"/>
      </g>
      <g id="Line_21">
        <line x1="362.49" y1="121.21" x2="376.31" y2="121.21" stroke="#75b65a" stroke-linecap="butt" stroke-linejoin="round" stroke-width="1"/>
      </g>
      <g id="Line_22">
        <line x1="362.49" y1="138.49" x2="376.31" y2="138.49" stroke="#985cac" stroke-linecap="butt" stroke-linejoin="round" stroke-width="1"/>
      </g>
      <g id="Line_23">
        <line x1="362.49" y1="155.77" x2="376.31" y2="155.77" stroke="#d2412c" stroke-linecap="butt" stroke-linejoin="round" stroke-width="1"/>
      </g>
      <g id="Graphic_24">
        <text transform="translate(383.52 95.52)" fill="black">
          <tspan font-family="Helvetica" font-size="10" fill="black" x="0" y="10">FOXA2</tspan>
        </text>
      </g>
      <g id="Graphic_25">
        <text transform="translate(383.17075 112.8)" fill="black">
          <tspan font-family="Helvetica" font-size="10" fill="black" x="0" y="10">NKX2-1</tspan>
        </text>
      </g>
      <g id="Graphic_26">
        <text transform="translate(383.52 130.08)" fill="black">
          <tspan font-family="Helvetica" font-size="10" fill="black" x="0" y="10">p63</tspan>
        </text>
      </g>
      <g id="Graphic_27">
        <text transform="translate(383.52 147.36)" fill="black">
          <tspan font-family="Helvetica" font-size="10" fill="black" x="0" y="10">SOX2</tspan>
        </text>
      </g>
    </g>
  </g>
</svg>
